# xmcd CD database file
#
# Track frame offsets:
#	150
#	18603
#	38559
#	66463
#	87978
#	95150
#	106358
#	129599
#	143506
#
# Disc length: 2155 seconds
#
# Revision: 0
# Processed by: cddbd v1.5PL3 Copyright (c) Steve Scherf et al.
# Submitted via: CDex 1.51
#
DISCID=7a086909
DTITLE=The Equinox Jazz Orchestra - From The Studio
DYEAR=2004
DGENRE=Jazz
TTITLE0=A Little Minor Booze
TTITLE1=Luck Be A Lady
TTITLE2=Things Ain't What They Used To Be
TTITLE3=A Night In Tunisia
TTITLE4=America The Beautiful
TTITLE5=Don't Get Around Much Anymore
TTITLE6=Body and Soul
TTITLE7=Fly Me To The Moon
TTITLE8=Sing, Sing, Sing
EXTD=YEAR: 2004
EXTT0=
EXTT1=
EXTT2=
EXTT3=
EXTT4=
EXTT5=
EXTT6=
EXTT7=
EXTT8=
PLAYORDER=
